<svg width="438" height="817" viewBox="0 0 438 817" fill="none" xmlns="http://www.w3.org/2000/svg">
<path d="M-152.017 210.086C-206.777 148.087 -228.822 44.1958 -233 0H438L400.401 126.985C384.333 162.155 321.233 253.915 291.46 274.512C242.87 308.126 224.938 383.134 222.046 416.437C220.911 429.509 227.638 494.869 307.849 562.096C377.263 620.274 422.253 760.043 429.323 817H-233C-233 701.966 -130.807 575.479 -79.7112 526.615C-64.6073 507.941 -32.6641 459.761 -25.7227 416.437C-18.7813 373.112 -45.3257 331.78 -59.4655 316.529C-67.4995 306.881 -97.2575 272.084 -152.017 210.086Z" fill="#C0DAE0"/>
</svg>
