<svg width="431" height="811" viewBox="0 0 431 811" fill="none" xmlns="http://www.w3.org/2000/svg">
<path d="M80.5 208.543C26.0667 147 4.15278 43.8712 0 0H667L629.625 126.053C613.653 160.964 550.929 252.051 521.333 272.496C473.033 305.863 455.208 380.32 452.333 413.378C451.205 426.354 457.892 491.234 537.625 557.968C606.625 615.718 651.347 754.462 658.375 811H0C0 696.811 101.583 571.253 152.375 522.747C167.389 504.21 199.142 456.384 206.042 413.378C212.942 370.372 186.556 329.343 172.5 314.205C164.514 304.627 134.933 270.086 80.5 208.543Z" fill="#C0DAE0"/>
</svg>
