<svg width="929" height="575" viewBox="0 0 929 575" fill="none" xmlns="http://www.w3.org/2000/svg">
<path d="M291.986 128.745C301.135 162.89 296.346 199.271 278.671 229.885C260.996 260.499 231.884 282.837 197.739 291.986C163.593 301.135 127.212 296.346 96.5985 278.671C65.9848 260.996 43.6462 231.884 34.497 197.739L163.242 163.242L291.986 128.745Z" fill="#C0DAE0"/>
<path d="M102.511 446.29C93.409 412.32 98.1741 376.126 115.758 345.669C133.342 315.212 162.305 292.988 196.275 283.886C230.246 274.784 266.44 279.549 296.897 297.133C327.354 314.717 349.578 343.68 358.68 377.65L230.596 411.97L102.511 446.29Z" fill="#C0DAE0"/>
<path d="M252 202V301.6L296 252H298L265.4 288.8L308.4 352H294.4L257.4 297.6L252 303.8V352H238V202H252ZM400.152 352C391.085 352 384.885 350.267 381.552 346.8C378.485 343.867 376.952 341.333 376.952 339.2V335C370.418 346.867 359.952 352.8 345.552 352.8C328.752 352.8 319.218 345.2 316.952 330C316.685 328.4 316.552 326.8 316.552 325.2C316.552 323.467 316.818 321.6 317.352 319.6C317.885 317.6 319.418 315.4 321.952 313C327.018 308.2 338.152 305.267 355.352 304.2C359.618 303.8 363.552 303.6 367.152 303.6C370.752 303.6 374.018 303.733 376.952 304V270.8C376.685 270.667 376.685 270.067 376.952 269C377.218 267.8 376.952 266.333 376.152 264.6C375.485 262.733 374.552 260.933 373.352 259.2C372.152 257.467 370.018 256 366.952 254.8C363.885 253.467 359.885 252.8 354.952 252.8C350.018 252.8 344.218 253.733 337.552 255.6C331.018 257.333 326.218 259.067 323.152 260.8L322.352 259.4C334.218 253.933 346.285 251.2 358.552 251.2C372.285 251.2 381.352 253.667 385.752 258.6C389.218 262.467 390.952 266.533 390.952 270.8V337.8C390.952 341.667 391.685 344.667 393.152 346.8C394.752 348.8 396.352 349.867 397.952 350L400.152 350.4H406.352V352H400.152ZM348.752 351.2C355.818 351.2 362.152 348.8 367.752 344C373.485 339.067 376.552 334.333 376.952 329.8V305.6C373.352 305.333 369.685 305.2 365.952 305.2C362.352 305.2 358.752 305.4 355.152 305.8C345.018 307 338.418 309.267 335.352 312.6C332.285 315.933 330.752 320.533 330.752 326.4C330.752 327.467 330.818 328.667 330.952 330C332.152 344.133 338.085 351.2 348.752 351.2ZM442.862 352C431.129 352 423.729 348.933 420.662 342.8C419.996 341.467 419.662 340.267 419.662 339.2V202.2H433.662V337.8C433.662 341.667 434.396 344.667 435.862 346.8C437.462 348.8 439.062 349.867 440.662 350L442.862 350.4H449.062V352H442.862ZM463.981 303.2C463.981 319.733 466.848 331.867 472.581 339.6C478.448 347.333 486.115 351.2 495.581 351.2C508.915 351.2 520.781 349.2 531.181 345.2L531.781 346.6C521.115 350.733 509.048 352.8 495.581 352.8C482.248 352.8 471.381 348.8 462.981 340.8C454.581 332.8 450.381 320.467 450.381 303.8C450.381 287.133 454.781 274.2 463.581 265C472.381 255.8 483.581 251.2 497.181 251.2C508.115 251.2 517.315 254.467 524.781 261C532.248 267.533 535.981 277.2 535.981 290C535.981 290.667 535.981 291.333 535.981 292H464.581C464.181 295.6 463.981 299.333 463.981 303.2ZM522.381 290.4C522.248 277.6 519.781 268.133 514.981 262C510.181 255.867 503.981 252.8 496.381 252.8C488.781 252.8 481.981 256.133 475.981 262.8C470.115 269.467 466.381 278.667 464.781 290.4H522.381ZM623.331 352C617.865 352 613.665 350.8 610.731 348.4C607.931 346 606.465 343.6 606.331 341.2L606.131 337.8V275C606.131 264.467 603.398 257.733 597.931 254.8C595.131 253.467 591.665 252.8 587.531 252.8C578.998 252.8 571.331 256.2 564.531 263C557.731 269.667 554.331 275.667 554.331 281V352H540.331V252H554.331V274.8C556.598 269.067 560.798 263.733 566.931 258.8C573.065 253.733 579.798 251.2 587.131 251.2C594.465 251.2 600.398 251.933 604.931 253.4C609.598 254.733 612.998 256.667 615.131 259.2C618.465 263.333 620.131 268.667 620.131 275.2V337.8C620.131 341.667 620.865 344.667 622.331 346.8C623.931 348.8 625.531 349.867 627.131 350L629.331 350.4H635.531V352H623.331ZM639.852 305.6C639.852 288.267 644.052 274.867 652.452 265.4C660.852 255.933 673.452 251.2 690.252 251.2C698.118 251.2 706.052 253.2 714.052 257.2V202.2H728.052V337.8C728.052 341.667 728.785 344.667 730.252 346.8C731.852 348.8 733.452 349.867 735.052 350L737.252 350.4H743.452V352H731.252C725.785 352 721.585 350.8 718.652 348.4C715.852 346 714.385 343.6 714.252 341.2L714.052 337.8V334.6C711.518 339.267 707.318 343.4 701.452 347C695.585 350.6 688.652 352.4 680.652 352.4C653.452 351.733 639.852 336.133 639.852 305.6ZM680.852 350.8C689.785 350.8 697.452 348.4 703.852 343.6C710.252 338.8 713.652 334.067 714.052 329.4V259C704.585 254.867 696.452 252.8 689.652 252.8C677.785 252.8 668.852 257.467 662.852 266.8C656.852 276 653.852 288.933 653.852 305.6C653.852 335.733 662.852 350.8 680.852 350.8ZM759.222 303.2C759.222 319.733 762.089 331.867 767.822 339.6C773.689 347.333 781.355 351.2 790.822 351.2C804.155 351.2 816.022 349.2 826.422 345.2L827.022 346.6C816.355 350.733 804.289 352.8 790.822 352.8C777.489 352.8 766.622 348.8 758.222 340.8C749.822 332.8 745.622 320.467 745.622 303.8C745.622 287.133 750.022 274.2 758.822 265C767.622 255.8 778.822 251.2 792.422 251.2C803.355 251.2 812.555 254.467 820.022 261C827.489 267.533 831.222 277.2 831.222 290C831.222 290.667 831.222 291.333 831.222 292H759.822C759.422 295.6 759.222 299.333 759.222 303.2ZM817.622 290.4C817.489 277.6 815.022 268.133 810.222 262C805.422 255.867 799.222 252.8 791.622 252.8C784.022 252.8 777.222 256.133 771.222 262.8C765.355 269.467 761.622 278.667 760.022 290.4H817.622ZM873.772 260.6V256.4C867.772 258.8 862.305 263.667 857.372 271C852.439 278.2 849.839 285 849.572 291.4V352H835.572V252H849.572V283.8C851.705 276.067 855.772 268.8 861.772 262C867.772 255.067 874.572 251.467 882.172 251.2H882.972C885.639 251.2 887.839 252.133 889.572 254C891.439 255.733 892.372 257.933 892.372 260.6C892.372 263.267 891.439 265.467 889.572 267.2C887.839 268.933 885.639 269.8 882.972 269.8C880.305 269.8 878.105 268.933 876.372 267.2C874.639 265.467 873.772 263.267 873.772 260.6Z" fill="black"/>
</svg>
