<svg width="87" height="87" viewBox="0 0 87 87" fill="none" xmlns="http://www.w3.org/2000/svg">
<path fill-rule="evenodd" clip-rule="evenodd" d="M43.5 7.25C33.6545 7.25 32.422 7.2935 28.5541 7.4675C24.6971 7.64512 22.0617 8.25775 19.7562 9.15313C17.3365 10.0623 15.1443 11.4887 13.3327 13.3327C11.4887 15.1443 10.0623 17.3365 9.15313 19.7562C8.25775 22.0617 7.64512 24.6971 7.4675 28.5541C7.28987 32.422 7.25 33.6545 7.25 43.5C7.25 53.3455 7.28987 54.578 7.4675 58.4459C7.64512 62.3029 8.25775 64.9382 9.15313 67.2437C10.0623 69.6635 11.4887 71.8557 13.3327 73.6673C15.1443 75.5113 17.3365 76.9377 19.7562 77.8469C22.0617 78.7422 24.6971 79.3549 28.5541 79.5325C32.422 79.7065 33.6545 79.75 43.5 79.75C53.3455 79.75 54.578 79.7065 58.4459 79.5325C62.3029 79.3549 64.9382 78.7422 67.2437 77.8469C69.6635 76.9377 71.8557 75.5113 73.6673 73.6673C75.5113 71.8557 76.9377 69.6635 77.8469 67.2437C78.7422 64.9382 79.3549 62.3029 79.5325 58.4459C79.7065 54.578 79.75 53.3455 79.75 43.5C79.75 33.6545 79.7065 32.422 79.5325 28.5541C79.3549 24.6971 78.7422 22.0617 77.8469 19.7562C76.9377 17.3365 75.5113 15.1443 73.6673 13.3327C71.8557 11.4887 69.6635 10.0623 67.2437 9.15313C64.9382 8.25775 62.3029 7.64512 58.4459 7.4675C54.578 7.2935 53.3455 7.25 43.5 7.25ZM43.5 13.7823C53.1787 13.7823 54.3243 13.8185 58.145 13.9925C61.683 14.1556 63.6006 14.7429 64.8803 15.2395C66.5695 15.8993 67.7803 16.6859 69.049 17.951C70.3178 19.2198 71.1007 20.4305 71.7605 22.1198C72.2535 23.3994 72.848 25.317 73.0075 28.8514C73.1815 32.6758 73.2178 33.8176 73.2178 43.5C73.2178 53.1787 73.1815 54.3243 73.0075 58.145C72.8444 61.683 72.2535 63.6006 71.7605 64.8803C71.1793 66.4549 70.2528 67.8794 69.049 69.049C67.7803 70.3178 66.5695 71.1007 64.8803 71.7605C63.6006 72.2535 61.683 72.848 58.1486 73.0075C54.3279 73.1815 53.1824 73.2178 43.5 73.2178C33.8212 73.2178 32.6721 73.1815 28.855 73.0075C25.317 72.8444 23.3994 72.2535 22.1198 71.7605C20.5451 71.1793 19.1206 70.2528 17.951 69.049C16.7472 67.8794 15.8207 66.4549 15.2395 64.8803C14.7429 63.6006 14.152 61.683 13.9925 58.1486C13.8185 54.3243 13.7823 53.1824 13.7823 43.5C13.7823 33.8212 13.8185 32.6758 13.9925 28.855C14.1556 25.317 14.7429 23.3994 15.2395 22.1198C15.8993 20.4305 16.6859 19.2198 17.951 17.951C19.2198 16.6823 20.4305 15.8993 22.1198 15.2395C23.3994 14.7429 25.317 14.152 28.8514 13.9925C32.6758 13.8185 33.8176 13.7823 43.5 13.7823ZM43.5 55.5821C40.2956 55.5821 37.2225 54.3092 34.9566 52.0434C32.6908 49.7775 31.4179 46.7044 31.4179 43.5C31.4179 40.2956 32.6908 37.2225 34.9566 34.9566C37.2225 32.6908 40.2956 31.4179 43.5 31.4179C46.7044 31.4179 49.7775 32.6908 52.0434 34.9566C54.3092 37.2225 55.5821 40.2956 55.5821 43.5C55.5821 46.7044 54.3092 49.7775 52.0434 52.0434C49.7775 54.3092 46.7044 55.5821 43.5 55.5821ZM43.5 24.8856C41.0555 24.8856 38.635 25.3671 36.3766 26.3026C34.1182 27.238 32.0662 28.6091 30.3376 30.3377C28.6091 32.0662 27.238 34.1182 26.3026 36.3766C25.3671 38.635 24.8856 41.0555 24.8856 43.5C24.8856 45.9445 25.3671 48.365 26.3026 50.6234C27.238 52.8818 28.6091 54.9338 30.3376 56.6623C32.0662 58.3909 34.1182 59.762 36.3766 60.6974C38.635 61.6329 41.0555 62.1144 43.5 62.1144C48.4368 62.1144 53.1715 60.1532 56.6623 56.6623C60.1532 53.1715 62.1144 48.4368 62.1144 43.5C62.1144 38.5632 60.1532 33.8285 56.6623 30.3377C53.1715 26.8468 48.4368 24.8856 43.5 24.8856ZM67.2002 24.1497C67.2002 24.721 67.0877 25.2867 66.8691 25.8144C66.6505 26.3422 66.3301 26.8217 65.9262 27.2257C65.5222 27.6296 65.0427 27.95 64.5149 28.1686C63.9872 28.3872 63.4215 28.4998 62.8502 28.4998C62.279 28.4998 61.7133 28.3872 61.1856 28.1686C60.6578 27.95 60.1783 27.6296 59.7743 27.2257C59.3704 26.8217 59.05 26.3422 58.8314 25.8144C58.6128 25.2867 58.5003 24.721 58.5003 24.1497C58.5003 22.9961 58.9585 21.8896 59.7743 21.0738C60.5901 20.2581 61.6966 19.7997 62.8502 19.7997C64.0039 19.7997 65.1104 20.2581 65.9262 21.0738C66.7419 21.8896 67.2002 22.9961 67.2002 24.1497Z" fill="black"/>
</svg>
