<svg width="569" height="286" viewBox="0 0 569 286" fill="none" xmlns="http://www.w3.org/2000/svg">
<path d="M8.70333 89.5996V-0.000396729H18.1753V89.5996H8.70333ZM74.0443 89.5996V22.3996H82.7483V40.8316L81.3403 37.3756C83.4737 32.5116 86.887 28.7143 91.5803 25.9836C96.2737 23.1676 101.863 21.7596 108.348 21.7596C113.81 21.7596 118.588 22.8263 122.684 24.9596C126.866 27.0076 130.108 30.1649 132.412 34.4316C134.802 38.6983 135.996 44.0743 135.996 50.5596V89.5996H126.908V51.4556C126.908 44.3729 125.116 39.0396 121.532 35.4556C118.034 31.7863 113.084 29.9516 106.684 29.9516C101.906 29.9516 97.7243 30.9329 94.1403 32.8956C90.6417 34.7729 87.911 37.5463 85.9483 41.2156C84.071 44.7996 83.1323 49.1516 83.1323 54.2716V89.5996H74.0443ZM185.504 90.2396C179.019 90.2396 173.174 88.7889 167.968 85.8876C162.848 82.9009 158.795 78.8476 155.808 73.7276C152.822 68.5223 151.328 62.5916 151.328 55.9356C151.328 49.1943 152.822 43.2636 155.808 38.1436C158.795 33.0236 162.848 29.0129 167.968 26.1116C173.088 23.2103 178.934 21.7596 185.504 21.7596C192.16 21.7596 198.048 23.2103 203.168 26.1116C208.374 29.0129 212.427 33.0236 215.328 38.1436C218.315 43.2636 219.808 49.1943 219.808 55.9356C219.808 62.5916 218.315 68.5223 215.328 73.7276C212.427 78.8476 208.374 82.9009 203.168 85.8876C197.963 88.7889 192.075 90.2396 185.504 90.2396ZM185.504 82.1756C190.368 82.1756 194.678 81.1089 198.432 78.9756C202.187 76.7569 205.131 73.6849 207.264 69.7596C209.483 65.7489 210.592 61.1409 210.592 55.9356C210.592 50.6449 209.483 46.0369 207.264 42.1116C205.131 38.1863 202.187 35.1569 198.432 33.0236C194.678 30.8049 190.411 29.6956 185.632 29.6956C180.854 29.6956 176.587 30.8049 172.832 33.0236C169.078 35.1569 166.091 38.1863 163.872 42.1116C161.654 46.0369 160.544 50.6449 160.544 55.9356C160.544 61.1409 161.654 65.7489 163.872 69.7596C166.091 73.6849 169.078 76.7569 172.832 78.9756C176.587 81.1089 180.811 82.1756 185.504 82.1756ZM264.602 115.072C258.458 115.072 252.57 114.176 246.938 112.384C241.306 110.592 236.741 108.032 233.242 104.704L237.85 97.7916C241.008 100.608 244.89 102.826 249.498 104.448C254.192 106.154 259.141 107.008 264.346 107.008C272.88 107.008 279.152 105.002 283.162 100.992C287.173 97.0663 289.178 90.9223 289.178 82.5596V65.7916L290.458 54.2716L289.562 42.7516V22.3996H298.266V81.4076C298.266 93.0129 295.408 101.504 289.69 106.88C284.058 112.341 275.696 115.072 264.602 115.072ZM262.938 87.0396C256.538 87.0396 250.778 85.6743 245.658 82.9436C240.538 80.1276 236.485 76.2449 233.498 71.2956C230.597 66.3463 229.146 60.6716 229.146 54.2716C229.146 47.8716 230.597 42.2396 233.498 37.3756C236.485 32.4263 240.538 28.5863 245.658 25.8556C250.778 23.1249 256.538 21.7596 262.938 21.7596C268.912 21.7596 274.288 22.9969 279.066 25.4716C283.845 27.9463 287.642 31.6156 290.458 36.4796C293.274 41.3436 294.682 47.2743 294.682 54.2716C294.682 61.2689 293.274 67.1996 290.458 72.0636C287.642 76.9276 283.845 80.6396 279.066 83.1996C274.288 85.7596 268.912 87.0396 262.938 87.0396ZM263.834 78.9756C268.784 78.9756 273.178 77.9516 277.018 75.9036C280.858 73.7703 283.888 70.8689 286.106 67.1996C288.325 63.4449 289.434 59.1356 289.434 54.2716C289.434 49.4076 288.325 45.1409 286.106 41.4716C283.888 37.8023 280.858 34.9436 277.018 32.8956C273.178 30.7623 268.784 29.6956 263.834 29.6956C258.97 29.6956 254.576 30.7623 250.65 32.8956C246.81 34.9436 243.781 37.8023 241.562 41.4716C239.429 45.1409 238.362 49.4076 238.362 54.2716C238.362 59.1356 239.429 63.4449 241.562 67.1996C243.781 70.8689 246.81 73.7703 250.65 75.9036C254.576 77.9516 258.97 78.9756 263.834 78.9756ZM349.667 90.2396C342.67 90.2396 336.526 88.7889 331.235 85.8876C325.945 82.9009 321.806 78.8476 318.819 73.7276C315.833 68.5223 314.339 62.5916 314.339 55.9356C314.339 49.2796 315.747 43.3916 318.563 38.2716C321.465 33.1516 325.39 29.1409 330.339 26.2396C335.374 23.2529 341.006 21.7596 347.235 21.7596C353.55 21.7596 359.139 23.2103 364.003 26.1116C368.953 28.9276 372.835 32.9383 375.651 38.1436C378.467 43.2636 379.875 49.1943 379.875 55.9356C379.875 56.3623 379.833 56.8316 379.747 57.3436C379.747 57.7703 379.747 58.2396 379.747 58.7516H321.251V51.9676H374.883L371.299 54.6556C371.299 49.7916 370.233 45.4823 368.099 41.7276C366.051 37.8876 363.235 34.9009 359.651 32.7676C356.067 30.6343 351.929 29.5676 347.235 29.5676C342.627 29.5676 338.489 30.6343 334.819 32.7676C331.15 34.9009 328.291 37.8876 326.243 41.7276C324.195 45.5676 323.171 49.9623 323.171 54.9116V56.3196C323.171 61.4396 324.281 65.9623 326.499 69.8876C328.803 73.7276 331.961 76.7569 335.971 78.9756C340.067 81.1089 344.718 82.1756 349.923 82.1756C354.019 82.1756 357.817 81.4503 361.315 79.9996C364.899 78.5489 367.971 76.3303 370.531 73.3436L375.651 79.2316C372.665 82.8156 368.91 85.5463 364.387 87.4236C359.95 89.3009 355.043 90.2396 349.667 90.2396ZM395.941 89.5996V22.3996H404.645V40.8316L403.237 37.3756C405.371 32.5116 408.784 28.7143 413.477 25.9836C418.171 23.1676 423.76 21.7596 430.245 21.7596C435.707 21.7596 440.485 22.8263 444.581 24.9596C448.763 27.0076 452.005 30.1649 454.309 34.4316C456.699 38.6983 457.893 44.0743 457.893 50.5596V89.5996H448.805V51.4556C448.805 44.3729 447.013 39.0396 443.429 35.4556C439.931 31.7863 434.981 29.9516 428.581 29.9516C423.803 29.9516 419.621 30.9329 416.037 32.8956C412.539 34.7729 409.808 37.5463 407.845 41.2156C405.968 44.7996 405.029 49.1516 405.029 54.2716V89.5996H395.941ZM35.4553 285.072C29.3113 285.072 23.4233 284.176 17.7913 282.384C12.1593 280.592 7.594 278.032 4.09533 274.704L8.70333 267.792C11.8607 270.608 15.7433 272.826 20.3513 274.448C25.0447 276.154 29.994 277.008 35.1993 277.008C43.7327 277.008 50.0047 275.002 54.0153 270.992C58.026 267.066 60.0313 260.922 60.0313 252.56V235.792L61.3113 224.272L60.4153 212.752V192.4H69.1193V251.408C69.1193 263.013 66.2607 271.504 60.5433 276.88C54.9113 282.341 46.5487 285.072 35.4553 285.072ZM33.7913 257.04C27.3913 257.04 21.6313 255.674 16.5113 252.944C11.3913 250.128 7.338 246.245 4.35133 241.296C1.45 236.346 -0.000671387 230.672 -0.000671387 224.272C-0.000671387 217.872 1.45 212.24 4.35133 207.376C7.338 202.426 11.3913 198.586 16.5113 195.856C21.6313 193.125 27.3913 191.76 33.7913 191.76C39.7647 191.76 45.1407 192.997 49.9193 195.472C54.698 197.946 58.4953 201.616 61.3113 206.48C64.1273 211.344 65.5353 217.274 65.5353 224.272C65.5353 231.269 64.1273 237.2 61.3113 242.064C58.4953 246.928 54.698 250.64 49.9193 253.2C45.1407 255.76 39.7647 257.04 33.7913 257.04ZM34.6873 248.976C39.6367 248.976 44.0313 247.952 47.8713 245.904C51.7113 243.77 54.7407 240.869 56.9593 237.2C59.178 233.445 60.2873 229.136 60.2873 224.272C60.2873 219.408 59.178 215.141 56.9593 211.472C54.7407 207.802 51.7113 204.944 47.8713 202.896C44.0313 200.762 39.6367 199.696 34.6873 199.696C29.8233 199.696 25.4287 200.762 21.5033 202.896C17.6633 204.944 14.634 207.802 12.4153 211.472C10.282 215.141 9.21533 219.408 9.21533 224.272C9.21533 229.136 10.282 233.445 12.4153 237.2C14.634 240.869 17.6633 243.77 21.5033 245.904C25.4287 247.952 29.8233 248.976 34.6873 248.976ZM91.9763 259.6V192.4H100.68V210.704L99.7843 207.504C101.662 202.384 104.819 198.501 109.256 195.856C113.694 193.125 119.198 191.76 125.768 191.76V200.592C125.427 200.592 125.086 200.592 124.744 200.592C124.403 200.506 124.062 200.464 123.72 200.464C116.638 200.464 111.091 202.64 107.08 206.992C103.07 211.258 101.064 217.36 101.064 225.296V259.6H91.9763ZM177.781 259.6V244.752L177.397 242.32V217.488C177.397 211.77 175.776 207.376 172.533 204.304C169.376 201.232 164.64 199.696 158.325 199.696C153.973 199.696 149.835 200.421 145.909 201.872C141.984 203.322 138.656 205.242 135.925 207.632L131.829 200.848C135.243 197.946 139.339 195.728 144.117 194.192C148.896 192.57 153.931 191.76 159.221 191.76C167.925 191.76 174.624 193.936 179.317 198.288C184.096 202.554 186.485 209.082 186.485 217.872V259.6H177.781ZM154.613 260.24C149.579 260.24 145.184 259.429 141.429 257.808C137.76 256.101 134.944 253.797 132.981 250.896C131.019 247.909 130.037 244.496 130.037 240.656C130.037 237.157 130.848 234 132.469 231.184C134.176 228.282 136.907 225.978 140.661 224.272C144.501 222.48 149.621 221.584 156.021 221.584H179.189V228.368H156.277C149.792 228.368 145.269 229.52 142.709 231.824C140.235 234.128 138.997 236.986 138.997 240.4C138.997 244.24 140.491 247.312 143.477 249.616C146.464 251.92 150.645 253.072 156.021 253.072C161.141 253.072 165.536 251.92 169.205 249.616C172.96 247.226 175.691 243.813 177.397 239.376L179.445 245.648C177.739 250.085 174.752 253.626 170.485 256.272C166.304 258.917 161.013 260.24 154.613 260.24ZM235.489 260.24C229.089 260.24 223.329 258.789 218.209 255.888C213.175 252.986 209.207 248.976 206.305 243.856C203.404 238.65 201.953 232.677 201.953 225.936C201.953 219.109 203.404 213.136 206.305 208.016C209.207 202.896 213.175 198.928 218.209 196.112C223.329 193.21 229.089 191.76 235.489 191.76C241.377 191.76 246.625 193.082 251.233 195.728C255.927 198.373 259.639 202.256 262.369 207.376C265.185 212.41 266.593 218.597 266.593 225.936C266.593 233.189 265.228 239.376 262.497 244.496C259.767 249.616 256.055 253.541 251.361 256.272C246.753 258.917 241.463 260.24 235.489 260.24ZM236.129 252.176C240.908 252.176 245.175 251.109 248.929 248.976C252.769 246.757 255.756 243.685 257.889 239.76C260.108 235.749 261.217 231.141 261.217 225.936C261.217 220.645 260.108 216.037 257.889 212.112C255.756 208.186 252.769 205.157 248.929 203.024C245.175 200.805 240.908 199.696 236.129 199.696C231.436 199.696 227.212 200.805 223.457 203.024C219.703 205.157 216.716 208.186 214.497 212.112C212.279 216.037 211.169 220.645 211.169 225.936C211.169 231.141 212.279 235.749 214.497 239.76C216.716 243.685 219.703 246.757 223.457 248.976C227.212 251.109 231.436 252.176 236.129 252.176ZM261.473 259.6V239.376L262.369 225.808L261.089 212.24V164.624H270.177V259.6H261.473ZM316.571 236.048V229.392L364.059 170H374.299L327.195 229.392L322.203 227.856H394.267V236.048H316.571ZM367.131 259.6V236.048L367.387 227.856V207.12H376.347V259.6H367.131ZM422.98 260.368C418.97 260.368 415.13 259.984 411.46 259.216C407.876 258.448 404.634 257.21 401.732 255.504L405.444 248.08C407.748 249.616 410.394 250.725 413.38 251.408C416.452 252.005 419.61 252.304 422.852 252.304C432.495 252.304 440.175 249.232 445.892 243.088C451.695 236.944 454.596 227.77 454.596 215.568C454.596 213.605 454.468 211.258 454.212 208.528C454.042 205.797 453.572 203.066 452.804 200.336L456.004 202.768C455.151 207.205 453.316 211.002 450.5 214.16C447.77 217.232 444.356 219.578 440.26 221.2C436.25 222.821 431.77 223.632 426.82 223.632C420.932 223.632 415.684 222.522 411.076 220.304C406.554 218.085 403.012 214.97 400.452 210.96C397.892 206.949 396.612 202.213 396.612 196.752C396.612 191.12 397.935 186.256 400.58 182.16C403.226 178.064 406.852 174.906 411.46 172.688C416.154 170.384 421.402 169.232 427.204 169.232C435.14 169.232 441.839 171.024 447.3 174.608C452.762 178.106 456.9 183.184 459.716 189.84C462.532 196.496 463.94 204.56 463.94 214.032C463.94 224.101 462.191 232.592 458.692 239.504C455.279 246.416 450.5 251.621 444.356 255.12C438.212 258.618 431.087 260.368 422.98 260.368ZM428.228 215.824C432.836 215.824 436.847 214.97 440.26 213.264C443.759 211.557 446.447 209.21 448.324 206.224C450.287 203.237 451.268 199.909 451.268 196.24C451.268 192.912 450.372 189.797 448.58 186.896C446.788 183.994 444.143 181.648 440.644 179.856C437.146 177.978 432.794 177.04 427.588 177.04C423.322 177.04 419.524 177.85 416.196 179.472C412.954 181.008 410.394 183.226 408.516 186.128C406.639 189.029 405.7 192.485 405.7 196.496C405.7 202.384 407.706 207.077 411.716 210.576C415.812 214.074 421.316 215.824 428.228 215.824ZM486.9 259.6L548.084 170H555.636L494.452 259.6H486.9ZM493.812 218C489.802 218 486.26 217.018 483.188 215.056C480.116 213.008 477.727 210.149 476.02 206.48C474.399 202.81 473.588 198.544 473.588 193.68C473.588 188.816 474.399 184.549 476.02 180.88C477.727 177.21 480.116 174.394 483.188 172.432C486.26 170.384 489.802 169.36 493.812 169.36C497.823 169.36 501.322 170.384 504.308 172.432C507.38 174.394 509.77 177.21 511.476 180.88C513.183 184.464 514.036 188.73 514.036 193.68C514.036 198.544 513.183 202.81 511.476 206.48C509.77 210.149 507.38 213.008 504.308 215.056C501.322 217.018 497.823 218 493.812 218ZM493.812 212.24C497.994 212.24 501.322 210.618 503.796 207.376C506.356 204.048 507.636 199.482 507.636 193.68C507.636 187.877 506.356 183.354 503.796 180.112C501.322 176.784 497.994 175.12 493.812 175.12C489.546 175.12 486.175 176.784 483.7 180.112C481.226 183.354 479.988 187.877 479.988 193.68C479.988 199.482 481.226 204.048 483.7 207.376C486.175 210.618 489.546 212.24 493.812 212.24ZM548.724 260.24C544.799 260.24 541.3 259.258 538.228 257.296C535.156 255.248 532.767 252.389 531.06 248.72C529.354 245.05 528.5 240.784 528.5 235.92C528.5 231.056 529.354 226.789 531.06 223.12C532.767 219.45 535.156 216.634 538.228 214.672C541.3 212.624 544.799 211.6 548.724 211.6C552.82 211.6 556.362 212.624 559.348 214.672C562.42 216.634 564.767 219.45 566.388 223.12C568.095 226.789 568.948 231.056 568.948 235.92C568.948 240.784 568.095 245.05 566.388 248.72C564.767 252.389 562.42 255.248 559.348 257.296C556.362 259.258 552.82 260.24 548.724 260.24ZM548.724 254.48C552.906 254.48 556.234 252.858 558.708 249.616C561.268 246.288 562.548 241.722 562.548 235.92C562.548 230.117 561.268 225.594 558.708 222.352C556.234 219.024 552.906 217.36 548.724 217.36C544.543 217.36 541.172 219.024 538.612 222.352C536.138 225.594 534.9 230.117 534.9 235.92C534.9 241.722 536.138 246.288 538.612 249.616C541.172 252.858 544.543 254.48 548.724 254.48Z" fill="black"/>
</svg>
