<svg width="87" height="87" viewBox="0 0 87 87" fill="none" xmlns="http://www.w3.org/2000/svg">
<path d="M60.1751 21.0975C57.6977 18.2683 56.3322 14.6356 56.3326 10.875H45.1313V55.825C45.0467 58.2581 44.0203 60.5632 42.2687 62.2539C40.517 63.9447 38.1771 64.889 35.7426 64.8875C30.5951 64.8875 26.3176 60.6825 26.3176 55.4625C26.3176 49.2275 32.3351 44.5513 38.5338 46.4725V35.0175C26.0276 33.35 15.0801 43.065 15.0801 55.4625C15.0801 67.5337 25.0851 76.125 35.7063 76.125C47.0888 76.125 56.3326 66.8813 56.3326 55.4625V32.6613C60.8747 35.9232 66.328 37.6733 71.9201 37.6638V26.4625C71.9201 26.4625 65.1051 26.7888 60.1751 21.0975Z" fill="black"/>
</svg>
